# Blender v2.91.0 OBJ File: ''
# www.blender.org
mtllib bowl.mtl
o Cylinder
v 0.000000 -1.000000 -1.000000
v -0.000000 -0.201095 -2.408790
v 0.195090 -1.000000 -0.980785
v 0.469932 -0.201095 -2.362506
v 0.382683 -1.000000 -0.923880
v 0.921804 -0.201095 -2.225432
v 0.555570 -1.000000 -0.831470
v 1.338252 -0.201095 -2.002836
v 0.707107 -1.000000 -0.707107
v 1.703272 -0.201095 -1.703272
v 0.831470 -1.000000 -0.555570
v 2.002836 -0.201095 -1.338252
v 0.923880 -1.000000 -0.382683
v 2.225432 -0.201095 -0.921804
v 0.980785 -1.000000 -0.195090
v 2.362506 -0.201095 -0.469931
v 1.000000 -1.000000 -0.000000
v 2.408790 -0.201095 0.000000
v 0.980785 -1.000000 0.195090
v 2.362506 -0.201095 0.469932
v 0.923880 -1.000000 0.382683
v 2.225432 -0.201095 0.921804
v 0.831470 -1.000000 0.555570
v 2.002836 -0.201095 1.338253
v 0.707107 -1.000000 0.707107
v 1.703272 -0.201095 1.703272
v 0.555570 -1.000000 0.831470
v 1.338252 -0.201095 2.002837
v 0.382683 -1.000000 0.923880
v 0.921804 -0.201095 2.225433
v 0.195090 -1.000000 0.980785
v 0.469931 -0.201095 2.362507
v -0.000000 -1.000000 1.000000
v -0.000001 -0.201095 2.408791
v -0.195091 -1.000000 0.980785
v -0.469933 -0.201095 2.362507
v -0.382684 -1.000000 0.923879
v -0.921805 -0.201095 2.225432
v -0.555571 -1.000000 0.831469
v -1.338254 -0.201095 2.002836
v -0.707107 -1.000000 0.707106
v -1.703274 -0.201095 1.703272
v -0.831470 -1.000000 0.555570
v -2.002837 -0.201095 1.338251
v -0.923880 -1.000000 0.382683
v -2.225433 -0.201095 0.921803
v -0.980785 -1.000000 0.195089
v -2.362507 -0.201095 0.469930
v -1.000000 -1.000000 -0.000001
v -2.408791 -0.201095 -0.000002
v -0.980785 -1.000000 -0.195091
v -2.362506 -0.201095 -0.469934
v -0.923879 -1.000000 -0.382684
v -2.225431 -0.201095 -0.921806
v -0.831469 -1.000000 -0.555571
v -2.002835 -0.201095 -1.338254
v -0.707106 -1.000000 -0.707108
v -1.703270 -0.201095 -1.703274
v -0.555569 -1.000000 -0.831470
v -1.338250 -0.201095 -2.002838
v -0.382682 -1.000000 -0.923880
v -0.921801 -0.201095 -2.225433
v -0.195089 -1.000000 -0.980786
v -0.469928 -0.201095 -2.362506
v 0.000000 -0.749649 -0.929840
v -0.000000 0.025063 -2.280540
v 0.181403 -0.749649 -0.911975
v 0.444913 0.025063 -2.236715
v 0.355840 -0.749649 -0.859060
v 0.872727 0.025063 -2.106941
v 0.516594 -0.749649 -0.773133
v 1.266998 0.025063 -1.896200
v 0.657498 -0.749649 -0.657498
v 1.612585 0.025063 -1.612585
v 0.773133 -0.749649 -0.516594
v 1.896200 0.025063 -1.266997
v 0.859060 -0.749649 -0.355840
v 2.106942 0.025063 -0.872727
v 0.911975 -0.749649 -0.181403
v 2.236715 0.025063 -0.444913
v 0.929840 -0.749649 -0.000000
v 2.280540 0.025063 0.000000
v 0.911975 -0.749649 0.181403
v 2.236716 0.025063 0.444913
v 0.859060 -0.749649 0.355840
v 2.106942 0.025063 0.872728
v 0.773133 -0.749649 0.516594
v 1.896200 0.025063 1.266998
v 0.657498 -0.749649 0.657498
v 1.612585 0.025063 1.612586
v 0.516594 -0.749649 0.773133
v 1.266997 0.025063 1.896201
v 0.355840 -0.749649 0.859060
v 0.872727 0.025063 2.106942
v 0.181403 -0.749649 0.911975
v 0.444913 0.025063 2.236716
v -0.000000 -0.749649 0.929840
v -0.000001 0.025063 2.280540
v -0.181403 -0.749649 0.911974
v -0.444914 0.025063 2.236716
v -0.355840 -0.749649 0.859060
v -0.872729 0.025063 2.106942
v -0.516595 -0.749649 0.773133
v -1.266999 0.025063 1.896200
v -0.657499 -0.749649 0.657498
v -1.612587 0.025063 1.612585
v -0.773133 -0.749649 0.516594
v -1.896201 0.025063 1.267005
v -0.859060 -0.749649 0.355839
v -2.106943 0.025063 0.872726
v -0.911975 -0.749649 0.181402
v -2.236716 0.025063 0.444912
v -0.929840 -0.749649 -0.000001
v -2.280540 0.025063 -0.000002
v -0.911974 -0.749649 -0.181404
v -2.236715 0.025063 -0.444915
v -0.859060 -0.749649 -0.355841
v -2.106941 0.025063 -0.872730
v -0.773132 -0.749649 -0.516595
v -1.896199 0.025063 -1.267000
v -0.657497 -0.749649 -0.657499
v -1.612583 0.025063 -1.612587
v -0.516593 -0.749649 -0.773134
v -1.267003 0.025063 -1.896202
v -0.355839 -0.749649 -0.859061
v -0.872724 0.025063 -2.106943
v -0.181401 -0.749649 -0.911975
v -0.444910 0.025063 -2.236716
vt 1.000000 0.500000
vt 0.968750 1.000000
vt 0.968750 0.500000
vt 0.937500 1.000000
vt 0.937500 0.500000
vt 0.906250 1.000000
vt 0.906250 0.500000
vt 0.875000 1.000000
vt 0.875000 0.500000
vt 0.843750 1.000000
vt 0.843750 0.500000
vt 0.812500 1.000000
vt 0.812500 0.500000
vt 0.781250 1.000000
vt 0.781250 0.500000
vt 0.750000 1.000000
vt 0.750000 0.500000
vt 0.718750 1.000000
vt 0.718750 0.500000
vt 0.687500 1.000000
vt 0.687500 0.500000
vt 0.656250 1.000000
vt 0.656250 0.500000
vt 0.625000 1.000000
vt 0.625000 0.500000
vt 0.593750 1.000000
vt 0.593750 0.500000
vt 0.562500 1.000000
vt 0.562500 0.500000
vt 0.531250 1.000000
vt 0.531250 0.500000
vt 0.500000 1.000000
vt 0.500000 0.500000
vt 0.468750 1.000000
vt 0.468750 0.500000
vt 0.437500 1.000000
vt 0.437500 0.500000
vt 0.406250 1.000000
vt 0.406250 0.500000
vt 0.375000 1.000000
vt 0.375000 0.500000
vt 0.343750 1.000000
vt 0.343750 0.500000
vt 0.312500 1.000000
vt 0.312500 0.500000
vt 0.281250 1.000000
vt 0.281250 0.500000
vt 0.250000 1.000000
vt 0.250000 0.500000
vt 0.218750 1.000000
vt 0.218750 0.500000
vt 0.187500 1.000000
vt 0.187500 0.500000
vt 0.156250 1.000000
vt 0.156250 0.500000
vt 0.125000 1.000000
vt 0.125000 0.500000
vt 0.093750 1.000000
vt 0.093750 0.500000
vt 0.062500 1.000000
vt 0.062500 0.500000
vt 0.031250 1.000000
vt 0.031250 0.500000
vt 0.000000 1.000000
vt 0.000000 0.500000
vt 0.985388 0.296822
vt 0.796822 0.014612
vt 0.514611 0.203179
vt 1.000000 0.500000
vt 0.968750 1.000000
vt 1.000000 1.000000
vt 0.968750 0.500000
vt 0.937500 1.000000
vt 0.937500 0.500000
vt 0.906250 1.000000
vt 0.906250 0.500000
vt 0.875000 1.000000
vt 0.875000 0.500000
vt 0.843750 1.000000
vt 0.843750 0.500000
vt 0.812500 1.000000
vt 0.812500 0.500000
vt 0.781250 1.000000
vt 0.781250 0.500000
vt 0.750000 1.000000
vt 0.750000 0.500000
vt 0.718750 1.000000
vt 0.718750 0.500000
vt 0.687500 1.000000
vt 0.687500 0.500000
vt 0.656250 1.000000
vt 0.656250 0.500000
vt 0.625000 1.000000
vt 0.625000 0.500000
vt 0.593750 1.000000
vt 0.593750 0.500000
vt 0.562500 1.000000
vt 0.562500 0.500000
vt 0.531250 1.000000
vt 0.531250 0.500000
vt 0.500000 1.000000
vt 0.500000 0.500000
vt 0.468750 1.000000
vt 0.468750 0.500000
vt 0.437500 1.000000
vt 0.437500 0.500000
vt 0.406250 1.000000
vt 0.406250 0.500000
vt 0.375000 1.000000
vt 0.375000 0.500000
vt 0.343750 1.000000
vt 0.343750 0.500000
vt 0.312500 1.000000
vt 0.312500 0.500000
vt 0.281250 1.000000
vt 0.281250 0.500000
vt 0.250000 1.000000
vt 0.250000 0.500000
vt 0.218750 1.000000
vt 0.218750 0.500000
vt 0.187500 1.000000
vt 0.187500 0.500000
vt 0.156250 1.000000
vt 0.156250 0.500000
vt 0.125000 1.000000
vt 0.125000 0.500000
vt 0.093750 1.000000
vt 0.093750 0.500000
vt 0.062500 1.000000
vt 0.062500 0.500000
vt 0.031250 1.000000
vt 0.031250 0.500000
vt 0.000000 1.000000
vt 0.883337 0.050447
vt 0.985388 0.203178
vt 0.796822 0.485388
vt 1.000000 1.000000
vt 0.703179 0.485389
vt 0.750000 0.490000
vt 0.796822 0.485388
vt 0.841844 0.471731
vt 0.883337 0.449553
vt 0.919706 0.419706
vt 0.949553 0.383337
vt 0.971731 0.341844
vt 0.990000 0.250000
vt 0.985388 0.203178
vt 0.971731 0.158156
vt 0.949553 0.116663
vt 0.919706 0.080294
vt 0.883337 0.050447
vt 0.841844 0.028269
vt 0.750000 0.010000
vt 0.703178 0.014612
vt 0.658156 0.028269
vt 0.616663 0.050447
vt 0.580294 0.080294
vt 0.550447 0.116663
vt 0.528269 0.158156
vt 0.510000 0.250000
vt 0.514612 0.296822
vt 0.528269 0.341844
vt 0.550447 0.383337
vt 0.580295 0.419706
vt 0.616663 0.449553
vt 0.658156 0.471731
vt 0.000000 0.500000
vt 0.750000 0.490000
vt 0.616663 0.449553
vt 0.703179 0.485389
vt 0.658156 0.471731
vt 0.580295 0.419706
vt 0.550447 0.383337
vt 0.528269 0.341844
vt 0.514612 0.296822
vt 0.510000 0.250000
vt 0.550447 0.116663
vt 0.514611 0.203179
vt 0.528269 0.158156
vt 0.580294 0.080294
vt 0.616663 0.050447
vt 0.658156 0.028269
vt 0.703178 0.014612
vt 0.750000 0.010000
vt 0.796822 0.014612
vt 0.841844 0.028269
vt 0.919706 0.080294
vt 0.949553 0.116663
vt 0.971731 0.158156
vt 0.990000 0.250000
vt 0.949553 0.383337
vt 0.985388 0.296822
vt 0.971731 0.341844
vt 0.919706 0.419706
vt 0.883337 0.449553
vt 0.841844 0.471731
vn 0.0485 -0.8688 -0.4927
vn 0.1437 -0.8688 -0.4738
vn 0.2334 -0.8688 -0.4366
vn 0.3141 -0.8688 -0.3827
vn 0.3827 -0.8688 -0.3141
vn 0.4366 -0.8688 -0.2334
vn 0.4738 -0.8688 -0.1437
vn 0.4927 -0.8688 -0.0485
vn 0.4927 -0.8688 0.0485
vn 0.4738 -0.8688 0.1437
vn 0.4366 -0.8688 0.2334
vn 0.3827 -0.8688 0.3141
vn 0.3141 -0.8688 0.3827
vn 0.2334 -0.8688 0.4366
vn 0.1437 -0.8688 0.4738
vn 0.0485 -0.8688 0.4927
vn -0.0485 -0.8688 0.4927
vn -0.1437 -0.8688 0.4738
vn -0.2334 -0.8688 0.4366
vn -0.3141 -0.8688 0.3827
vn -0.3827 -0.8688 0.3141
vn -0.4366 -0.8688 0.2334
vn -0.4738 -0.8688 0.1437
vn -0.4927 -0.8688 0.0485
vn -0.4927 -0.8688 -0.0485
vn -0.4738 -0.8688 -0.1437
vn -0.4366 -0.8688 -0.2334
vn -0.3827 -0.8688 -0.3141
vn -0.3141 -0.8688 -0.3827
vn -0.2334 -0.8688 -0.4366
vn -0.1437 -0.8688 -0.4738
vn -0.0485 -0.8688 -0.4927
vn 0.0000 -1.0000 0.0000
vn -0.0489 0.8664 0.4969
vn -0.1449 0.8664 0.4778
vn -0.2354 0.8664 0.4404
vn -0.3168 0.8664 0.3860
vn -0.3860 0.8664 0.3168
vn -0.4404 0.8664 0.2354
vn -0.4778 0.8664 0.1449
vn -0.4969 0.8664 0.0489
vn -0.4969 0.8664 -0.0489
vn -0.4778 0.8664 -0.1449
vn -0.4404 0.8664 -0.2354
vn -0.3860 0.8664 -0.3168
vn -0.3168 0.8664 -0.3860
vn -0.2354 0.8664 -0.4404
vn -0.1449 0.8664 -0.4778
vn -0.0489 0.8664 -0.4969
vn 0.0489 0.8664 -0.4969
vn 0.1449 0.8664 -0.4778
vn 0.2354 0.8664 -0.4404
vn 0.3168 0.8664 -0.3860
vn 0.3860 0.8664 -0.3168
vn 0.4404 0.8664 -0.2354
vn 0.4778 0.8664 -0.1449
vn 0.4969 0.8664 -0.0489
vn 0.4969 0.8664 0.0489
vn 0.4778 0.8664 0.1450
vn 0.4404 0.8664 0.2354
vn 0.3860 0.8664 0.3168
vn 0.3168 0.8664 0.3860
vn 0.2354 0.8664 0.4404
vn 0.1449 0.8664 0.4778
vn 0.0489 0.8664 0.4969
vn 0.0000 1.0000 0.0000
vn 0.0854 0.4915 -0.8667
vn 0.2528 0.4915 -0.8334
vn 0.4105 0.4915 -0.7681
vn 0.5525 0.4915 -0.6732
vn 0.6732 0.4915 -0.5525
vn 0.7681 0.4915 -0.4105
vn 0.8334 0.4915 -0.2528
vn 0.8667 0.4915 -0.0854
vn 0.8667 0.4915 0.0854
vn 0.8334 0.4915 0.2528
vn 0.7681 0.4915 0.4105
vn 0.6732 0.4915 0.5525
vn 0.5525 0.4915 0.6732
vn 0.4105 0.4915 0.7681
vn 0.2528 0.4915 0.8334
vn 0.0854 0.4915 0.8667
vn -0.0854 0.4915 0.8667
vn -0.2528 0.4915 0.8334
vn -0.4105 0.4915 0.7681
vn -0.5525 0.4915 0.6732
vn -0.6732 0.4915 0.5525
vn -0.7681 0.4915 0.4105
vn -0.8334 0.4915 0.2528
vn -0.8667 0.4915 0.0854
vn -0.8667 0.4915 -0.0854
vn -0.8334 0.4915 -0.2528
vn -0.7681 0.4915 -0.4105
vn -0.6732 0.4915 -0.5525
vn -0.5525 0.4915 -0.6732
vn -0.4105 0.4915 -0.7681
vn -0.2528 0.4915 -0.8334
vn -0.0854 0.4915 -0.8667
vn -0.1450 0.8664 0.4778
vn -0.4778 0.8664 0.1450
vn -0.4778 0.8664 -0.1450
vn -0.1450 0.8664 -0.4778
vn 0.1450 0.8664 -0.4778
vn 0.4778 0.8664 -0.1450
vn -0.7680 0.4915 -0.4105
usemtl None
s off
f 1/1/1 4/2/1 3/3/1
f 3/3/2 6/4/2 5/5/2
f 5/5/3 8/6/3 7/7/3
f 7/7/4 10/8/4 9/9/4
f 9/9/5 12/10/5 11/11/5
f 11/11/6 14/12/6 13/13/6
f 13/13/7 16/14/7 15/15/7
f 15/15/8 18/16/8 17/17/8
f 17/17/9 20/18/9 19/19/9
f 19/19/10 22/20/10 21/21/10
f 21/21/11 24/22/11 23/23/11
f 23/23/12 26/24/12 25/25/12
f 25/25/13 28/26/13 27/27/13
f 27/27/14 30/28/14 29/29/14
f 29/29/15 32/30/15 31/31/15
f 31/31/16 34/32/16 33/33/16
f 33/33/17 36/34/17 35/35/17
f 35/35/18 38/36/18 37/37/18
f 37/37/19 40/38/19 39/39/19
f 39/39/20 42/40/20 41/41/20
f 41/41/21 44/42/21 43/43/21
f 43/43/22 46/44/22 45/45/22
f 45/45/23 48/46/23 47/47/23
f 47/47/24 50/48/24 49/49/24
f 49/49/25 52/50/25 51/51/25
f 51/51/26 54/52/26 53/53/26
f 53/53/27 56/54/27 55/55/27
f 55/55/28 58/56/28 57/57/28
f 57/57/29 60/58/29 59/59/29
f 59/59/30 62/60/30 61/61/30
f 61/61/31 64/62/31 63/63/31
f 63/63/32 2/64/32 1/65/32
f 15/66/33 31/67/33 47/68/33
f 65/69/34 68/70/34 66/71/34
f 67/72/35 70/73/35 68/70/35
f 69/74/36 72/75/36 70/73/36
f 71/76/37 74/77/37 72/75/37
f 73/78/38 76/79/38 74/77/38
f 75/80/39 78/81/39 76/79/39
f 77/82/40 80/83/40 78/81/40
f 79/84/41 82/85/41 80/83/41
f 81/86/42 84/87/42 82/85/42
f 83/88/43 86/89/43 84/87/43
f 85/90/44 88/91/44 86/89/44
f 87/92/45 90/93/45 88/91/45
f 89/94/46 92/95/46 90/93/46
f 91/96/47 94/97/47 92/95/47
f 93/98/48 96/99/48 94/97/48
f 95/100/49 98/101/49 96/99/49
f 97/102/50 100/103/50 98/101/50
f 99/104/51 102/105/51 100/103/51
f 101/106/52 104/107/52 102/105/52
f 103/108/53 106/109/53 104/107/53
f 105/110/54 108/111/54 106/109/54
f 107/112/55 110/113/55 108/111/55
f 109/114/56 112/115/56 110/113/56
f 111/116/57 114/117/57 112/115/57
f 113/118/58 116/119/58 114/117/58
f 115/120/59 118/121/59 116/119/59
f 117/122/60 120/123/60 118/121/60
f 119/124/61 122/125/61 120/123/61
f 121/126/62 124/127/62 122/125/62
f 123/128/63 126/129/63 124/127/63
f 125/130/64 128/131/64 126/129/64
f 127/132/65 66/133/65 128/131/65
f 91/134/66 83/135/66 67/136/66
f 4/2/67 66/71/67 68/70/67
f 6/4/68 68/70/68 70/73/68
f 8/6/69 70/73/69 72/75/69
f 10/8/70 72/75/70 74/77/70
f 12/10/71 74/77/71 76/79/71
f 14/12/72 76/79/72 78/81/72
f 16/14/73 78/81/73 80/83/73
f 18/16/74 80/83/74 82/85/74
f 20/18/75 82/85/75 84/87/75
f 22/20/76 84/87/76 86/89/76
f 24/22/77 86/89/77 88/91/77
f 26/24/78 88/91/78 90/93/78
f 28/26/79 90/93/79 92/95/79
f 30/28/80 92/95/80 94/97/80
f 32/30/81 94/97/81 96/99/81
f 34/32/82 96/99/82 98/101/82
f 36/34/83 98/101/83 100/103/83
f 38/36/84 100/103/84 102/105/84
f 40/38/85 102/105/85 104/107/85
f 42/40/86 104/107/86 106/109/86
f 44/42/87 106/109/87 108/111/87
f 46/44/88 108/111/88 110/113/88
f 48/46/89 110/113/89 112/115/89
f 50/48/90 112/115/90 114/117/90
f 52/50/91 114/117/91 116/119/91
f 54/52/92 116/119/92 118/121/92
f 56/54/93 118/121/93 120/123/93
f 58/56/94 120/123/94 122/125/94
f 60/58/95 122/125/95 124/127/95
f 62/60/96 124/127/96 126/129/96
f 64/62/97 126/129/97 128/131/97
f 2/64/98 128/131/98 66/133/98
f 1/1/1 2/137/1 4/2/1
f 3/3/2 4/2/2 6/4/2
f 5/5/3 6/4/3 8/6/3
f 7/7/4 8/6/4 10/8/4
f 9/9/5 10/8/5 12/10/5
f 11/11/6 12/10/6 14/12/6
f 13/13/7 14/12/7 16/14/7
f 15/15/8 16/14/8 18/16/8
f 17/17/9 18/16/9 20/18/9
f 19/19/10 20/18/10 22/20/10
f 21/21/11 22/20/11 24/22/11
f 23/23/12 24/22/12 26/24/12
f 25/25/13 26/24/13 28/26/13
f 27/27/14 28/26/14 30/28/14
f 29/29/15 30/28/15 32/30/15
f 31/31/16 32/30/16 34/32/16
f 33/33/17 34/32/17 36/34/17
f 35/35/18 36/34/18 38/36/18
f 37/37/19 38/36/19 40/38/19
f 39/39/20 40/38/20 42/40/20
f 41/41/21 42/40/21 44/42/21
f 43/43/22 44/42/22 46/44/22
f 45/45/23 46/44/23 48/46/23
f 47/47/24 48/46/24 50/48/24
f 49/49/25 50/48/25 52/50/25
f 51/51/26 52/50/26 54/52/26
f 53/53/27 54/52/27 56/54/27
f 55/55/28 56/54/28 58/56/28
f 57/57/29 58/56/29 60/58/29
f 59/59/30 60/58/30 62/60/30
f 61/61/31 62/60/31 64/62/31
f 63/63/32 64/62/32 2/64/32
f 63/138/33 1/139/33 3/140/33
f 3/140/33 5/141/33 7/142/33
f 7/142/33 9/143/33 11/144/33
f 11/144/33 13/145/33 7/142/33
f 13/145/33 15/66/33 7/142/33
f 15/66/33 17/146/33 19/147/33
f 19/147/33 21/148/33 15/66/33
f 21/148/33 23/149/33 15/66/33
f 23/149/33 25/150/33 31/67/33
f 25/150/33 27/151/33 31/67/33
f 27/151/33 29/152/33 31/67/33
f 31/67/33 33/153/33 35/154/33
f 35/154/33 37/155/33 39/156/33
f 39/156/33 41/157/33 43/158/33
f 43/158/33 45/159/33 47/68/33
f 47/68/33 49/160/33 51/161/33
f 51/161/33 53/162/33 55/163/33
f 55/163/33 57/164/33 63/138/33
f 57/164/33 59/165/33 63/138/33
f 59/165/33 61/166/33 63/138/33
f 63/138/33 3/140/33 7/142/33
f 31/67/33 35/154/33 47/68/33
f 35/154/33 39/156/33 47/68/33
f 39/156/33 43/158/33 47/68/33
f 47/68/33 51/161/33 63/138/33
f 51/161/33 55/163/33 63/138/33
f 63/138/33 7/142/33 15/66/33
f 15/66/33 23/149/33 31/67/33
f 63/138/33 15/66/33 47/68/33
f 65/69/34 67/72/34 68/70/34
f 67/72/99 69/74/99 70/73/99
f 69/74/36 71/76/36 72/75/36
f 71/76/37 73/78/37 74/77/37
f 73/78/38 75/80/38 76/79/38
f 75/80/39 77/82/39 78/81/39
f 77/82/100 79/84/100 80/83/100
f 79/84/41 81/86/41 82/85/41
f 81/86/42 83/88/42 84/87/42
f 83/88/101 85/90/101 86/89/101
f 85/90/44 87/92/44 88/91/44
f 87/92/45 89/94/45 90/93/45
f 89/94/46 91/96/46 92/95/46
f 91/96/47 93/98/47 94/97/47
f 93/98/102 95/100/102 96/99/102
f 95/100/49 97/102/49 98/101/49
f 97/102/50 99/104/50 100/103/50
f 99/104/103 101/106/103 102/105/103
f 101/106/52 103/108/52 104/107/52
f 103/108/53 105/110/53 106/109/53
f 105/110/54 107/112/54 108/111/54
f 107/112/55 109/114/55 110/113/55
f 109/114/104 111/116/104 112/115/104
f 111/116/57 113/118/57 114/117/57
f 113/118/58 115/120/58 116/119/58
f 115/120/59 117/122/59 118/121/59
f 117/122/60 119/124/60 120/123/60
f 119/124/61 121/126/61 122/125/61
f 121/126/62 123/128/62 124/127/62
f 123/128/63 125/130/63 126/129/63
f 125/130/64 127/132/64 128/131/64
f 127/132/65 65/167/65 66/133/65
f 67/136/66 65/168/66 123/169/66
f 65/168/66 127/170/66 123/169/66
f 127/170/66 125/171/66 123/169/66
f 123/169/66 121/172/66 119/173/66
f 119/173/66 117/174/66 115/175/66
f 115/175/66 113/176/66 107/177/66
f 113/176/66 111/178/66 107/177/66
f 111/178/66 109/179/66 107/177/66
f 107/177/66 105/180/66 103/181/66
f 103/181/66 101/182/66 99/183/66
f 99/183/66 97/184/66 91/134/66
f 97/184/66 95/185/66 91/134/66
f 95/185/66 93/186/66 91/134/66
f 91/134/66 89/187/66 87/188/66
f 87/188/66 85/189/66 83/135/66
f 83/135/66 81/190/66 75/191/66
f 81/190/66 79/192/66 75/191/66
f 79/192/66 77/193/66 75/191/66
f 75/191/66 73/194/66 71/195/66
f 71/195/66 69/196/66 67/136/66
f 123/169/66 119/173/66 115/175/66
f 107/177/66 103/181/66 99/183/66
f 91/134/66 87/188/66 83/135/66
f 75/191/66 71/195/66 83/135/66
f 71/195/66 67/136/66 83/135/66
f 67/136/66 123/169/66 99/183/66
f 123/169/66 115/175/66 99/183/66
f 115/175/66 107/177/66 99/183/66
f 99/183/66 91/134/66 67/136/66
f 4/2/67 2/137/67 66/71/67
f 6/4/68 4/2/68 68/70/68
f 8/6/69 6/4/69 70/73/69
f 10/8/70 8/6/70 72/75/70
f 12/10/71 10/8/71 74/77/71
f 14/12/72 12/10/72 76/79/72
f 16/14/73 14/12/73 78/81/73
f 18/16/74 16/14/74 80/83/74
f 20/18/75 18/16/75 82/85/75
f 22/20/76 20/18/76 84/87/76
f 24/22/77 22/20/77 86/89/77
f 26/24/78 24/22/78 88/91/78
f 28/26/79 26/24/79 90/93/79
f 30/28/80 28/26/80 92/95/80
f 32/30/81 30/28/81 94/97/81
f 34/32/82 32/30/82 96/99/82
f 36/34/83 34/32/83 98/101/83
f 38/36/84 36/34/84 100/103/84
f 40/38/85 38/36/85 102/105/85
f 42/40/86 40/38/86 104/107/86
f 44/42/87 42/40/87 106/109/87
f 46/44/88 44/42/88 108/111/88
f 48/46/89 46/44/89 110/113/89
f 50/48/90 48/46/90 112/115/90
f 52/50/91 50/48/91 114/117/91
f 54/52/92 52/50/92 116/119/92
f 56/54/105 54/52/105 118/121/105
f 58/56/94 56/54/94 120/123/94
f 60/58/95 58/56/95 122/125/95
f 62/60/96 60/58/96 124/127/96
f 64/62/97 62/60/97 126/129/97
f 2/64/98 64/62/98 128/131/98
